<?xml version="1.0" encoding="utf-8"?>
<!-- Generator: Adobe Illustrator 25.2.3, SVG Export Plug-In . SVG Version: 6.00 Build 0)  -->
<svg version="1.1" id="Capa_1" xmlns="http://www.w3.org/2000/svg" xmlns:xlink="http://www.w3.org/1999/xlink" x="0px" y="0px"
	 viewBox="0 0 1280 1024" style="enable-background:new 0 0 1280 1024;" xml:space="preserve">
<style type="text/css">
	.st0{fill:#262C3A;}
	.st1{fill:#FDFDFD;}
	.st2{fill:#97F0DC;}
	.st3{fill:#FBFBFB;}
	.st4{fill:#69A79A;}
	.st5{fill:#B0B0B1;}
	.st6{fill:#303440;}
	.st7{fill:#E9D5CC;}
	.st8{fill:#B3EAF9;}
	.st9{fill:#7FA5B0;}
	.st10{fill:#7EA4AF;}
	.st11{fill:#FCFCFC;}
	.st12{fill:#A2938D;}
	.st13{fill:#B2E9F8;}
	.st14{fill:#80A6B2;}
	.st15{fill:#82AAB6;}
</style>
<g>
	<g>
		<path class="st0" d="M730.39,1022.97c-242.03,0-484.06-0.01-726.09,0.09c-3.51,0-4.3-0.79-4.3-4.3c0.09-338.3,0.09-676.6,0-1014.9
			c0-3.51,0.79-4.3,4.3-4.3c423.51,0.09,847.03,0.09,1270.54,0c3.51,0,4.3,0.79,4.3,4.3c-0.09,338.3-0.09,676.6,0,1014.9
			c0,3.51-0.79,4.31-4.3,4.3c-64.45-0.12-128.9-0.09-193.34-0.09c1.18-2.55,2.97-4.55,2.33-8.05
			c-6.93-37.86-18.45-74.24-34.47-109.2c-5.51-12.02-11.75-23.72-17.07-35.83c-7.14-16.27-14.77-32.24-24.29-47.27
			c-0.58-0.91-0.99-2.02-2.41-1.77c-15.29-0.28-30.46,1.63-45.7,2.29c-9.48,0.41-18.95,1.19-28.32,2.95
			c-2.19,0.41-2.7,1.14-2.63,3.27c0.92,28.34,1.14,56.62-0.74,84.99c-1.57,23.61-4.56,47.05-6.45,70.61
			c-1.02,12.71-4.57,25.14-4.09,38c-1.56,0-3.12,0-4.68,0c0.08-3.58-0.09-7.19,0.3-10.73c1.43-13,3.12-25.97,4.59-38.97
			c5.09-44.79,7.75-89.71,6.42-134.81c-0.04-1.43,0.59-3.06-0.83-4.45c-5.5,3.89-10.89,7.84-17.15,10.3
			c-16.99,6.66-34.25,10.29-52.32,4.56c-2.37-2.14-4.74-4.28-7.79-7.04c-0.68,6.22-1.09,11.59-1.89,16.9
			c-3.76,25.17-3.72,50.81-9.85,75.7c-2.26,9.17-2.94,18.73-4.4,28.1c-3.15,20.28-9.43,39.97-11.66,60.43c-1.87,0-3.75,0-5.62,0
			c0.93-6.25,1.86-12.5,2.79-18.74c4.85-11.62,5.87-24.15,8.15-36.33c3.14-16.76,5.08-33.75,7.65-50.62
			c2.27-14.9,5.38-29.67,6.33-44.76c0.6-9.47,1.56-18.92,2.44-28.38c0.29-3.13,0.1-4.6-3.86-3.19c-6.58,2.35-13.38,4.08-20.14,5.88
			c-14.13,3.77-28.18,7.76-41.63,13.62c-3.7,1.61-6.73,3.69-8.06,7.82c-7.33,22.78-14.94,45.47-22.09,68.3
			c-7.87,25.14-10.82,51.39-16.96,76.92C726.4,1017.73,726.81,1020.62,730.39,1022.97z M764.06,710.29
			c-2.2-6.15-1.18-11.75,2.92-16.81c0.95-3.76,1.56-8.1-1.64-10.48c-5.61-4.17-11.15-8.22-15.55-15.15
			c-0.57,6.42-1.86,11.68-4.41,16.5c-2.46,4.65-5.18,9.16-7.79,13.73c-1.94,1.31-3.23,3.08-4.21,5.61
			c6.79,0.05,13.06-1.4,19.43-1.07c4.56,0.23,7.3,2.21,7.84,6.87c-0.44,6.44-2.6,12.28-6.15,17.63c-1.33,1.69-2.65,3.4-4,5.08
			c-1.81,2.25-1.13,3.13,1.6,3.36c5.88,0.49,11.76,1.02,17.61,1.78c4.17,0.54,4.94-1.14,3.64-4.66c-0.73-5.3,0.61-11.05-3.85-15.51
			C767.44,715.11,765.86,712.59,764.06,710.29z M775.69,511.93c-0.18,1.33-0.62,2.65,0.08,4.21c1.11-0.58,2.18-1.13,3.24-1.68
			c1.95-0.77,3.88-1.6,5.85-2.3c2.34-0.83,3.86-0.24,3.83,2.56c-0.99,2.61-3.66,2.69-5.69,3.61c-12.66,5.74-21.93,14.55-26.18,28.12
			c-2.44,7.77-2.27,8.32,5.84,7.79c22.58-1.46,45.15-1.4,67.74-0.57c2.48,0.09,4.97-0.13,7.46-0.21c2.16,0.02,4.33-0.03,6.49,0.06
			c3.48,0.16,3.77-1.49,3.58-4.62c-0.51-8.35-4.24-15-9.45-21.22c-2.23-2.66-5.37-4.77-6.18-8.5c0.15-0.27,0.24-0.55,0.28-0.85
			c2.19-1.72,3.77-0.3,5.38,1.02c7.11,8.5,14.41,16.76,14.9,28.83c0.71,17.44-0.38,34.32-12,48.67c-0.57,0.7-1.49,1.28-0.69,2.36
			c1.65,2.22,0.29,4.26-0.58,6.14c-3.02,6.57-5,13.4-5.88,20.56c-1.23,10.04-3.04,20.09-0.25,30.15c1.63,5.87,3.7,6.65,8.48,2.74
			c5.23-4.28,9.39-9.56,12.17-15.76c3.05-6.8,6.64-13.36,8.73-20.6c0.79-2.75,2.79-3.26,4.53-0.32c-0.16,6.76-3.91,12.31-6.2,18.34
			c-4.18,11.02-10.81,20.09-21.2,26.08c-7.93-0.15-10.82-2.58-12.15-12.18c-2.28-16.45,0.19-32.45,5.84-48
			c0.54-1.49,1.9-2.81,1.2-4.82c-1.49,0.71-2.88,1.38-4.26,2.04c-21.25,6.7-41.87,5.42-61.78-5.09c-0.66,1.75-0.77,3.39-0.11,5.05
			c-0.06,2.8,0.08,5.63-0.24,8.41c-0.34,2.97,0.73,4.42,3.54,5.49c7.75,2.93,15.62,5.49,23.85,6.4c7.44,0.82,15.12,3.39,22.23-1.52
			c1-0.69,2.15-0.42,2.91,0.58c0.74,0.97,0.64,2.11,0.01,3.07c-1.08,1.66-2.79,2.41-4.63,2.93c-5.54,1.58-11.13,1.02-16.72,0.44
			c-10.73-1.11-21.06-3.93-31.5-8.02c-0.4,22.75,1.48,44.82,4.39,67.12c3.7-1.92,7.03-3.61,10.32-5.36
			c1.37-0.73,2.67-1.05,3.66,0.48c1.14,1.76,0.15,3-1.27,3.88c-1.45,0.9-3.04,1.58-4.56,2.35c-4.48,2.27-8.78,4.73-11.48,9.25
			c-1.65,2.78-1.97,5.58-0.45,8.43c1.76,3.32,3.8,6.44,7.12,8.49c3.4,2.09,6.06,5.25,9.9,6.74c1.56,0.61,2.62,1.92,1.72,3.72
			c-0.91,1.82-2.38,1.5-3.98,0.78c-1.76-0.78-3.25-2.27-5.61-2.42c0.35,9.71,2,18.88,6.99,27.01
			c11.93,19.46,28.97,33.61,48.55,44.72c16.5,9.36,34.4,9.43,52.73,6.88c16.32-2.27,31.02-8.79,44.86-16.85
			c19.6-11.41,36.36-26.15,46.25-47.34c1.45-3.1,3.07-6.14,4.81-9.09c7.38-12.51,11.02-26.33,14.15-40.31
			c2.93-13.1,3.77-26.5,5.23-39.81c1.28-11.72,2.13-23.49,3.16-35.23c0.9-1.74,0.75-3.65,0.84-5.5c1.13-25.11,1.02-50.21,0.03-75.32
			c-1.49-37.85-19.23-67.31-46.85-91.78c-18.01-15.96-39.8-23.34-62.89-27.55c-8.47-1.54-17.1-0.99-25.66-0.03
			c-1.29,0.15-2.49,0.28-3.11,1.62c-6.96,0.29-13.27,3.24-19.87,4.97c-12.48,3.27-23.08,9.97-32.06,19.21
			c-3.04,3.13-6.1,6.25-9.08,9.44c-10.43,11.17-17.78,24.26-24.38,38.74c15.04-3.83,29.81-4.74,44.57-4.72
			c30.56,0.05,61.02,2.95,91.55,4.16c11.11,0.44,22.28,0.6,32.91,4.94c6.4,2.61,10.46,6.63,9.96,11.41
			c-0.54,5.12-5.95,9.45-12.51,9.85c-3.58,0.22-7.16,0.23-10.75,0.34c-0.97-0.49-1.93-0.51-2.9-0.01c-1.48-0.06-2.96-0.11-4.44-0.17
			c-0.37-0.43-0.78-0.49-1.22-0.11c-0.52-0.04-1.04-0.08-1.56-0.11c-11.28-1.8-22.67-1.49-34.03-1.56
			c-38.26-0.23-76.6,2.09-114.65-4C775.56,508.11,775.55,509.89,775.69,511.93z M1045.93,679.52c0.37,0.32,0.68,0.28,0.92-0.16
			c5.59-4.54,12.44-6.24,19.08-8.34c14.39-4.55,28.73-9.25,42.72-14.92c1.66-0.67,4.21-1.18,4.25-3.12c0.04-1.86-2.5-2.44-4.01-3.46
			c-0.23-0.15-0.6-0.1-0.9-0.15c-4.14-3.15-8.12-6.54-12.44-9.4c-9.72-6.43-19.25-13.1-28.31-20.43
			c-6.42-5.2-12.48-10.72-17.02-17.72c0.29-0.89-0.04-1.53-0.8-2.01c0.01-0.95,0.01-1.91,0.02-2.86c2.56-6.59,8.3-9.38,14.29-11.71
			c18.96-7.36,37.46-15.72,55.49-25.12c1.52-0.79,3.03-1.6,4.49-2.47c1.99-1.19,1.95-2.27-0.3-3.06c-3.36-1.18-6.72-2.34-10.09-3.5
			c-1.4-0.65-2.78-1.34-4.2-1.94c-24.5-10.49-46.9-24.06-64.81-44.21c-1.74-2.26-1.35-4.52-0.31-7c3.79-9.05,7.99-17.92,12.46-26.65
			c12.94-25.26,27.94-49.35,41.78-74.09c0.79-1.41,2.73-2.92,1.59-4.53c-0.94-1.32-2.92-0.24-4.41,0.03
			c-11.49,2.09-23.03,3.98-34.45,6.4c-21.36,4.53-42.79,8.55-64.65,9.6c-11.41,0.55-17.3-4.87-17.87-16.2
			c-1.82-36.05-0.58-71.99,4.4-107.77c1.08-7.8,2.04-15.62,3.21-24.54c-5.17,3.08-7.86,7.18-11.41,10.26
			c-18.97,16.46-37.41,33.47-54.41,52.01c-13.52,14.75-24.5,31.43-36.66,47.22c-4.74,6.16-6.4,6.42-12.88,2.09
			c-1.17-0.78-2.3-1.62-3.37-2.52c-11.56-9.71-22.78-19.7-32.97-30.96c-13.92-15.37-28.08-30.52-41.53-46.31
			c-1.01-1.19-1.88-2.72-3.98-3.27c-0.11,2.24-0.2,4.08-0.3,5.93c-0.84,8.67-1.89,17.33-2.48,26.02
			c-1.1,16.13-2.97,32.22-1.51,48.47c1.22,13.54,3.94,26.7,7.87,39.67c-7.82,3.62-15.96,3.57-24.29,2.42
			c-15.49-2.14-30.47-6.51-45.55-10.38c-7.4-1.9-14.77-3.87-22.17-5.78c-2.49-0.64-4.19-0.59-1.88,2.47
			c8.4,16.53,17.56,32.61,28.58,47.56c7.67,10.41,15.48,20.73,23.07,31.2c7.34,10.14,4.73,16.63-4.81,22.9
			c-15.42,10.13-31.49,18.9-49.04,24.79c-1.99,0.67-3.9,1.55-6.05,2.42c1.46,1.85,3.4,2.16,4.98,3
			c15.82,8.39,31.05,17.65,40.97,33.13c6.42,10.03,9.62,21.04,4.32,32.77c-3.07,6.8-8.01,12.27-13.86,16.81
			c-6.15,4.78-12.53,9.26-18.81,13.87c-3.06,1.85-6.2,3.59-9.17,6.55c14.77,3.94,29.46,6.49,42.02,14.89
			c1.79,1.64,3.58,3.28,5.38,4.93c0.32-2.25,0.65-4.54,0.97-6.83c1.17-8.4,4.84-14.78,13.77-16.73c2.34-0.51,2.33-2.01,2.35-3.82
			c0.1-8.89,0.46-17.76,0.23-26.66c-0.08-2.98-0.74-5.15-2.66-7.48c-15.99-19.39-14.61-49.27,3.61-65.75
			c4.5-4.07,6.14-8.22,6.21-13.63c0.02-2,1.35-3.93-0.7-6.08c-4.32-4.53-3.68-8.47,1.69-11.81c2.2-1.37,3.77-2.89,4.76-5.32
			c8.57-20.98,21.53-38.9,38.14-54.25c14.16-13.08,31.5-19.49,49.91-23.36c9.17-1.93,18.59-1.86,27.96-1.71
			c0.87,0.26,1.73,0.63,2.62,0.75c9.52,1.29,18.81,3.08,27.96,6.5c20.46,7.66,37.6,19.64,52.42,35.62
			c22.63,24.41,34.31,52.84,35.17,86.2c0.84,32.77,1.01,65.47-2.43,98.11c-0.18,1.74-0.04,2.93,1.62,3.89
			c3.07,1.78,6,3.78,9.02,5.66c16.72,10.43,17.57,35.35,1.56,46.77c-5.14,3.67-10.88,6.11-17.07,7.3c-3.12,0.6-4.71,2.04-5.61,5.22
			c-3.2,11.27-7.59,22.07-13.39,32.3c-2.07,3.65-3.58,7.62-5.49,11.36c-1.48,2.9-0.8,4.42,2.47,4.65
			c8.71,0.61,17.41,1.17,26.12,1.81c3.13,0.23,3.57-1.04,2.22-3.54c-0.51-0.95-0.99-1.93-1.49-2.89
			c-2.78-7.24-7.06-13.85-9.02-21.44c0.03-2.24,0.51-4.34,1.98-6.12c1.84-0.53,3.67-1.05,5.51-1.58
			c15.91,0.15,31.51,3.61,47.36,4.47c2.55,0.14,5.97,1.56,7.41-0.51c1.15-1.67-1.2-4.44-2.26-6.62
			c-3.38-6.59-6.75-13.19-10.13-19.78c-2.85-5.56-5.09-11.22-2.82-17.6L1045.93,679.52z M848.57,820.85
			c-0.13,4.67-0.27,9.35-0.38,14.02c-0.02,0.76-0.17,1.92,0.24,2.21c4.32,3.15,7.2,8.2,13.25,9.06c14.49,2.07,28.03-1.12,41.24-6.66
			c5.08-1.23,9.41-3.89,13.52-7.02c1.4-1.07,2.92-2.11,2.93-3.97c0.08-9.89,0.04-19.79,0.04-29.75c-1.24-0.01-2.81,1.11-4.5,1.81
			c-17.83,7.4-36.31,10.56-55.61,9.07c-3.83-0.3-8.86-3.74-11.1-0.55C846.4,811.64,848.31,816.83,848.57,820.85z M952.45,499.58
			c-5.72-3.7-12.32-4.1-18.75-4.59c-25.9-1.97-51.8-3.94-77.74-5.39c-21.37-1.19-42.8-2.61-63.99,2.53
			c-6.45,1.56-12.7,3.4-18.57,6.48c-1.98,1.65-0.75,2.66,0.79,3.43c2.53,1.27,5.3,1.71,8.06,2.24c14.92,2.87,30.07,2.91,45.16,3.39
			c37.39,1.19,74.84-1.21,112.21,1.82c4.33,0.35,8.8,0.25,12.79-1.9C956.54,505.37,956.5,502.55,952.45,499.58z M790.3,601.04
			c10.79,2.52,21.57,2.33,32.32-0.18c8.73-2.04,15.8-6.27,19.57-14.96c2.74-6.33,4.93-12.72,5.31-19.69
			c0.45-8.21,0.57-8.21-7.66-7.45c-18.07,0.07-36.11-1.46-54.19-0.81c-3.36,0.12-5.61,0.48-6.23,4.7c-0.4,2.79-2.01,5.95-5.88,6.23
			c-3.54,0.25-4.86-2.73-5.2-4.94c-0.7-4.64-3.15-5.29-6.98-4.62c-1.06,0.18-2.24,0.25-3.26-0.03c-3.25-0.87-3.47,0.75-3.38,3.38
			C755.38,582.3,770.37,598.53,790.3,601.04z M1000.3,695.1c7.27-1.12,13.08-3.59,18.22-7.52c6.63-5.07,9.11-11.81,8.16-20.13
			c-1.22-10.68-7.53-16.97-16.88-21.08c-2.9-1.28-2.78,0.64-2.94,2.32C1005.43,664.01,1004.25,679.37,1000.3,695.1z M765.77,676.83
			c0-2.14,0.19-3.81-0.03-5.43c-1.42-10.64-1.78-21.35-2.4-32.05c-0.11-1.9,0.95-4.89-0.87-5.46c-2.27-0.71-4.7,1.05-6.43,2.98
			c-1.47,1.63-2.65,3.45-3.2,5.6C749.95,653.73,751.46,668.34,765.77,676.83z"/>
		<path class="st1" d="M917.65,1022.97c-0.48-12.86,3.07-25.29,4.09-38c1.89-23.56,4.88-47,6.45-70.61
			c1.88-28.37,1.66-56.65,0.74-84.99c-0.07-2.13,0.44-2.86,2.63-3.27c9.37-1.76,18.84-2.54,28.32-2.95
			c15.24-0.66,30.42-2.57,45.7-2.29c1.89,5.27,3.34,10.75,5.73,15.78c11.31,23.75,22.59,47.51,32.64,71.83
			c8.08,19.55,15.78,39.28,22,59.47c5.58,18.12,9.78,36.67,14.59,55.03c-14.98,0-29.96,0-44.94,0c-0.44-3.23-0.69-6.5-1.34-9.69
			c-6.37-31.58-14.94-62.57-25.34-93.06c-0.54-1.6-1.37-3.12-2.22-4.59c-0.64-1.1-1.66-2.03-3.05-1.71
			c-1.78,0.4-1.77,1.91-1.66,3.37c-1.58,2.13-0.99,4.42-0.55,6.73c5.04,25.97,11.39,51.73,13.07,78.25c0.44,6.9,2.58,13.7,1.41,20.7
			c-13.73,0-27.46,0-41.2,0c-0.1-1.66,0.74-2.95,1.55-4.3c7.58-12.7,14.91-25.54,21.45-38.83c1.1-2.24,1.44-4.39,1.2-6.74
			c-2.29-22.56-10.08-43.45-21.77-62.49c-8.65-14.09-16.67-28.4-24.06-43.14c-2.43-4.85-5.54-9.37-8.5-13.95
			c-1.41-2.18-3-3.07-3.7,0.57c-3.46,0.8-3.16,2.94-1.77,5.28c6.22,10.45,10.38,21.88,15.59,32.8
			c10.39,21.74,20.84,43.44,27.99,66.55c2.05,6.63,2.05,12.81-1.76,18.79c-2.34,3.67-4.55,7.43-6.85,11.13
			c-5.33,8.57-11.53,16.62-15.83,25.83c-1.26,2.7-2.49,5.41-1.34,8.49C943.86,1022.97,930.75,1022.97,917.65,1022.97z"/>
		<path class="st2" d="M853.98,848.87c18.07,5.73,35.33,2.1,52.32-4.56c6.27-2.46,11.66-6.42,17.15-10.3
			c1.42,1.39,0.79,3.03,0.83,4.45c1.33,45.1-1.33,90.01-6.42,134.81c-1.48,12.99-3.16,25.97-4.59,38.97
			c-0.39,3.55-0.21,7.15-0.3,10.73c-25.59,0-51.18,0-76.78,0c-0.04-1.86-0.18-3.73-0.1-5.59c1-23.13,3.12-46.16,5.44-69.19
			c2.02-20.09,4.76-40.07,7.6-60.05C850.99,875.09,853.64,862.12,853.98,848.87z"/>
		<path class="st3" d="M730.39,1022.97c-3.58-2.35-3.99-5.25-2.97-9.47c6.14-25.53,9.09-51.78,16.96-76.92
			c7.15-22.83,14.76-45.52,22.09-68.3c1.33-4.13,4.36-6.21,8.06-7.82c13.45-5.86,27.5-9.85,41.63-13.62
			c6.76-1.8,13.56-3.54,20.14-5.88c3.96-1.41,4.15,0.06,3.86,3.19c-0.88,9.45-1.84,18.9-2.44,28.38
			c-0.95,15.09-4.07,29.86-6.33,44.76c-2.57,16.87-4.5,33.86-7.65,50.62c-2.28,12.18-3.3,24.71-8.15,36.33
			c-1.46-1.73-1.23-6.8-5.57-2.8c-1.94-2.82-4.01-5.56-5.79-8.48c-7.27-11.94-15.61-23.32-19.81-36.9
			c-1.5-4.84-1.14-9.54,1.23-14.02c5.16-9.77,10.34-19.54,16.66-28.63c12.72-18.3,23.3-37.85,33.63-57.55
			c0.92-1.75,1.97-4.03-0.55-5.3c-2.39-1.21-2.92,0.91-3.85,2.62c-9.36,17.36-17.78,35.26-29.36,51.37
			c-7.82,10.88-14.49,22.5-20.84,34.3c-1.71,3.17-3.29,6.37-3.52,10.05c-0.45,0.37-1.14,0.65-1.3,1.12
			c-2.7,7.74,0.21,15.51,1.87,22.59c1.6,6.84,6.1,13.47,9.85,19.96c5.44,9.42,9.6,19.54,11.47,30.41c-10.3,0-20.6,0-30.9,0
			c-0.36-5.51,1.62-10.75,1.79-16.2c0.77-24.79,0.36-49.54-2.81-74.18c-0.22-1.72-0.02-3.94-2.68-4.21
			c-4.34-1.87-5.04-1.34-5.6,3.65c-2.84,25.15-4.52,50.42-9.05,75.38c-0.86,4.73-2.66,9.71-0.31,14.62c-0.33,0.31-0.67,0.63-1,0.94
			C742.87,1022.97,736.63,1022.97,730.39,1022.97z"/>
		<path class="st4" d="M853.98,848.87c-0.34,13.24-2.99,26.21-4.85,39.27c-2.84,19.98-5.58,39.96-7.6,60.05
			c-2.32,23.03-4.44,46.06-5.44,69.19c-0.08,1.86,0.06,3.73,0.1,5.59c-5.93,0-11.86,0-17.79,0c2.23-20.46,8.5-40.15,11.66-60.43
			c1.46-9.37,2.14-18.93,4.4-28.1c6.13-24.9,6.09-50.54,9.85-75.7c0.79-5.31,1.2-10.69,1.89-16.9
			C849.24,844.59,851.61,846.73,853.98,848.87z"/>
		<path class="st5" d="M940.93,854.1c0.7-3.64,2.29-2.75,3.7-0.57c2.95,4.57,6.06,9.09,8.5,13.95
			c7.39,14.74,15.41,29.05,24.06,43.14c11.69,19.04,19.48,39.93,21.77,62.49c0.24,2.35-0.1,4.5-1.2,6.74
			c-6.54,13.28-13.87,26.12-21.45,38.83c-0.81,1.35-1.65,2.64-1.55,4.3c-4.37,0-8.74,0-13.11,0c-0.24-4.52,2.41-7.99,4.52-11.53
			c6.37-10.71,12.94-21.31,19.49-31.92c4.23-6.86,4.77-14.06,2.12-21.53c-3.06-8.65-6.01-17.36-9.43-25.87
			c-8.94-22.26-20.85-43.19-29.49-65.61C947.12,861.98,944.76,857.47,940.93,854.1z"/>
		<path class="st5" d="M1080.56,1022.97c-4.81-18.36-9.01-36.91-14.59-55.03c-6.22-20.2-13.93-39.92-22-59.47
			c-10.05-24.32-21.33-48.08-32.64-71.83c-2.39-5.03-3.85-10.51-5.73-15.78c1.42-0.25,1.83,0.86,2.41,1.77
			c9.52,15.03,17.15,31.01,24.29,47.27c5.31,12.11,11.55,23.8,17.07,35.83c16.03,34.96,27.55,71.34,34.47,109.2
			c0.64,3.5-1.14,5.5-2.33,8.05C1081.18,1022.97,1080.87,1022.97,1080.56,1022.97z"/>
		<path class="st6" d="M940.93,854.1c3.83,3.37,6.19,7.88,7.93,12.41c8.64,22.42,20.56,43.35,29.49,65.61
			c3.42,8.51,6.37,17.22,9.43,25.87c2.65,7.48,2.11,14.68-2.12,21.53c-6.55,10.61-13.12,21.2-19.49,31.92
			c-2.11,3.55-4.77,7.01-4.52,11.53c-1.56,0-3.12,0-4.68,0c-1.15-3.08,0.08-5.79,1.34-8.49c4.3-9.21,10.49-17.26,15.83-25.83
			c2.3-3.7,4.51-7.45,6.85-11.13c3.81-5.98,3.81-12.16,1.76-18.79c-7.15-23.11-17.6-44.82-27.99-66.55
			c-5.22-10.92-9.38-22.35-15.59-32.8C937.77,857.04,937.47,854.9,940.93,854.1z"/>
		<path class="st5" d="M765.08,928.38c2.66,0.28,2.45,2.49,2.68,4.21c3.17,24.64,3.57,49.39,2.81,74.18
			c-0.17,5.44-2.15,10.69-1.79,16.2c-6.55,0-13.11,0-19.66,0c0.33-0.31,0.67-0.63,1-0.94c6.03,0.3,3.91-4.7,4.34-7.38
			C759.11,986.04,760.96,957.07,765.08,928.38z"/>
		<path class="st5" d="M1002.01,917.29c-0.1-1.45-0.12-2.96,1.66-3.37c1.39-0.31,2.41,0.61,3.05,1.71c0.85,1.47,1.67,2.99,2.22,4.59
			c10.39,30.49,18.97,61.48,25.34,93.06c0.64,3.19,0.9,6.46,1.34,9.69c-4.06,0-8.11,0-12.17,0c-0.76-5.02-1.14-10.12-2.82-14.97
			c-1.05-1.35-0.69-2.97-0.82-4.49c-0.8-9.44-2.08-18.81-3.38-28.19c-2.58-18.61-8.26-36.64-10.22-55.35
			C1005.9,917.13,1004.36,916.7,1002.01,917.29z"/>
		<path class="st5" d="M810,1001.43c4.34-4,4.11,1.07,5.57,2.8c-0.93,6.25-1.86,12.5-2.79,18.74c-4.37,0-8.74,0-13.11,0
			c-1.87-10.87-6.03-20.99-11.47-30.41c-3.75-6.49-8.25-13.12-9.85-19.96c-1.65-7.07-4.56-14.84-1.87-22.59
			c0.16-0.47,0.86-0.75,1.3-1.12c0.36,4.33,1.17,8.56,2.86,12.6c6.23,14.99,15.25,28.36,24.32,41.69c0.81,1.2,1.88,2.26,3.47,1.73
			C810.07,1004.37,810.11,1002.88,810,1001.43z"/>
		<path class="st6" d="M1002.01,917.29c2.35-0.59,3.89-0.16,4.19,2.69c1.96,18.71,7.64,36.74,10.22,55.35
			c1.3,9.38,2.58,18.75,3.38,28.19c0.13,1.52-0.23,3.14,0.82,4.49c0.32,4.99,0.63,9.98,0.95,14.97c-1.87,0-3.75,0-5.62,0
			c1.16-7.01-0.98-13.8-1.41-20.7c-1.68-26.52-8.03-52.28-13.07-78.25C1001.02,921.72,1000.43,919.42,1002.01,917.29z"/>
		<path class="st7" d="M1021.57,1022.97c-0.32-4.99-0.63-9.98-0.95-14.97c1.68,4.85,2.06,9.94,2.82,14.97
			C1022.82,1022.97,1022.2,1022.97,1021.57,1022.97z"/>
		<path class="st7" d="M867.37,622.11c-1.73-2.94-3.73-2.42-4.53,0.32c-2.09,7.24-5.68,13.8-8.73,20.6
			c-2.78,6.2-6.94,11.48-12.17,15.76c-4.78,3.91-6.85,3.13-8.48-2.74c-2.79-10.06-0.98-20.11,0.25-30.15
			c0.88-7.16,2.86-13.99,5.88-20.56c0.87-1.88,2.23-3.92,0.58-6.14c-0.8-1.07,0.12-1.66,0.69-2.36c11.62-14.35,12.71-31.22,12-48.67
			c-0.49-12.07-7.79-20.33-14.9-28.83c0.71-1.1,1.85-1.03,2.92-1.02c9.5,0.14,18.97-0.41,28.46-0.86
			c14.46-0.69,28.96-0.51,43.42-1.28c4.79-0.25,9.92,0.52,14.46-2.06c0.52,0.04,1.04,0.08,1.56,0.11c0.41,0.04,0.81,0.07,1.22,0.11
			c1.48,0.06,2.96,0.11,4.44,0.17c0.97,0,1.93,0,2.9,0.01c3.58-0.1,7.17-0.12,10.75-0.34c6.56-0.4,11.98-4.73,12.51-9.85
			c0.5-4.78-3.57-8.8-9.96-11.41c-10.63-4.34-21.8-4.5-32.91-4.94c-30.53-1.21-60.98-4.11-91.55-4.16
			c-14.75-0.03-29.52,0.89-44.57,4.72c6.6-14.48,13.95-27.57,24.38-38.74c2.98-3.19,6.03-6.31,9.08-9.44
			c8.98-9.24,19.58-15.94,32.06-19.21c6.6-1.73,12.91-4.68,19.87-4.97c6.83,0.68,13.71-0.77,20.53,0.51
			c21.11,3.97,39.91,12.7,56.51,26.46c12.69,10.52,24.04,22.08,33.19,35.89c10.2,15.39,14.55,32.63,17.12,50.5
			c2.8,19.42,4.62,38.95,6.77,58.44c0.99,8.94,1.45,17.96,3.54,26.76c-1.04,11.75-1.88,23.51-3.16,35.23
			c-1.46,13.3-2.3,26.7-5.23,39.81c-3.13,13.98-6.77,27.8-14.15,40.31c-1.74,2.95-3.36,5.98-4.81,9.09
			c-9.89,21.19-26.65,35.93-46.25,47.34c-13.84,8.05-28.53,14.58-44.86,16.85c-18.34,2.55-36.23,2.48-52.73-6.88
			c-19.58-11.1-36.62-25.26-48.55-44.72c-4.99-8.13-6.63-17.31-6.99-27.01c2.36,0.15,3.85,1.64,5.61,2.42
			c1.6,0.71,3.07,1.04,3.98-0.78c0.9-1.8-0.16-3.11-1.72-3.72c-3.84-1.5-6.5-4.65-9.9-6.74c-3.32-2.04-5.36-5.16-7.12-8.49
			c-1.52-2.86-1.2-5.66,0.45-8.43c2.69-4.52,6.99-6.98,11.48-9.25c1.53-0.77,3.11-1.46,4.56-2.35c1.43-0.88,2.41-2.12,1.27-3.88
			c-0.99-1.53-2.29-1.21-3.66-0.48c-3.3,1.75-6.62,3.44-10.32,5.36c-2.91-22.3-4.79-44.36-4.39-67.12
			c10.44,4.09,20.77,6.91,31.5,8.02c5.59,0.58,11.18,1.13,16.72-0.44c1.84-0.52,3.55-1.28,4.63-2.93c0.63-0.97,0.73-2.1-0.01-3.07
			c-0.76-0.99-1.91-1.27-2.91-0.58c-7.12,4.91-14.8,2.34-22.23,1.52c-8.23-0.91-16.1-3.47-23.85-6.4c-2.81-1.06-3.88-2.52-3.54-5.49
			c0.32-2.78,0.18-5.6,0.24-8.41c18.44,7.13,37.26,8.68,56.48,3.68c2.18-0.57,4.75-0.73,5.41-3.63c1.39-0.66,2.77-1.33,4.26-2.04
			c0.71,2.01-0.66,3.33-1.2,4.82c-5.65,15.56-8.12,31.56-5.84,48c1.33,9.6,4.22,12.03,12.15,12.18c3.85,1.94,7.07,0.05,9.81-2.15
			c11.79-9.44,18.12-22.2,21.37-36.63C871.75,625.1,871.11,622.33,867.37,622.11z M944.51,708.75c-1.78-2.35-3.57-4.69-5.32-7.06
			c-1.5-2.03-3.29-3.75-5.48-5c-1.49-0.85-3.04-0.96-4.03,0.78c-0.89,1.57-0.02,2.65,1.29,3.46c4.57,2.83,6.81,7.61,9.73,11.77
			c3.57,5.1,1.84,10.92-3.96,13.46c-2.37,1.04-5.06,1.44-7.65,1.87c-5.82,0.98-11.66,1.78-17.49,2.68
			c-1.48,0.23-2.81,0.93-2.88,2.57c-0.08,2.01,1.4,2.56,3.12,2.62c-0.03,2.37,1.03,3.68,3.46,4.14c8.06,1.51,16.21,1.12,23.89-1.08
			c12.97-3.71,14.86-15.9,11.81-25C950.05,711.09,948.73,707.92,944.51,708.75z M948.7,524.13c-6.1,0.87-7.11,2.69-4.09,7.82
			c1.24,2.12,2.84,4.03,4.3,6.02c4.17,5.7,9.01,11.05,10.03,18.47c-31.67-4.18-63.43-3.41-95.34-1.39c0.11-3.57,1.44-6.28,2.99-8.72
			c4.19-6.56,8.66-12.95,13.07-19.37c1.05-1.52,2.05-3.07,0.12-4.43c-1.84-1.29-3.22-0.05-4.28,1.45c-2.97,4.2-5.92,8.42-8.88,12.62
			c-3.6,5.12-7.14,10.37-8.05,16.69c-2.94,20.45,3.56,38.09,16.8,53.43c4.12,4.78,9.67,7.75,15.59,10.02
			c12.12,4.66,24.46,3.78,36.88,1.71c20.87-3.48,41.43-16.69,42.84-44.97c0.43-8.5,0.81-17-2.36-25.36
			c-3.44-9.05-10.19-15.55-15.87-22.9C951.49,523.99,950.21,523.61,948.7,524.13z M816.47,699.18c-2.49,0-4.99,0.06-7.48-0.01
			c-9.54-0.28-18.99,0.35-28.32,2.54c-1.76,0.41-2.95,1.17-2.59,3.13c0.33,1.8,1.79,1.93,3.28,1.8c0.78-0.06,1.57-0.11,2.31-0.32
			c8.52-2.37,17.24-2.69,25.97-2.28c38.81,1.83,77.75,2.88,114.97,16.13c1.47,0.52,2.82,0.52,3.51-1.15
			c0.72-1.76,0.69-3.43-1.37-4.27c-1.72-0.7-3.49-1.32-5.29-1.79C887.06,703.81,851.85,700.92,816.47,699.18z M923.8,641.92
			c8.77,0.5,17.42-1.38,26-3.78c8.52-2.38,13.94-8.44,18.52-15.52c1.36-2.1,0.38-3.7-1.34-4.71c-1.8-1.05-3.13-0.43-3.85,1.77
			c-2.15,6.51-6.78,10.71-13.11,12.93c-13.36,4.68-27.01,5.87-40.88,2.54c-1.94-0.46-3.89-1.18-4.57,1.35
			c-0.68,2.54,1.53,2.98,3.32,3.58C912.99,641.77,918.26,642.04,923.8,641.92z"/>
		<path class="st8" d="M1050.23,601.83c4.54,7,10.6,12.52,17.02,17.72c9.06,7.33,18.59,14,28.31,20.43
			c4.33,2.86,8.31,6.25,12.44,9.4c-1.54,0.14-3.13,0.1-4.63,0.46c-21.17,5.04-41.06,13.64-61,22.06c-6.09,2.57-5.93,2.96-5.91-3.98
			c0-0.31,0.02-0.62,0-0.94c-0.59-11.56-5.52-20.87-14.76-27.77c-1.87-1.39-2.15-2.85-1.91-4.78c0.26-2,0.6-4,0.85-6
			c2.13-16.59,0.59-33.29,1.52-49.95c1.19-21.35-0.79-42.64-6.41-63.41c-3.8-14.04-5.55-28.8-14.51-41.03
			c-2.11-2.88-3.97-5.96-5.92-8.96c-10.12-15.53-21.23-30.26-37.91-39.24c-14.67-7.9-29.97-14.6-46.72-16.7
			c-6.03-0.76-12.21-2.75-18.34-0.2c-9.36-0.14-18.79-0.22-27.96,1.71c-18.41,3.88-35.75,10.28-49.91,23.36
			c-16.61,15.35-29.56,33.27-38.14,54.25c-0.99,2.42-2.56,3.95-4.76,5.32c-5.36,3.34-6,7.29-1.69,11.81
			c2.05,2.15,0.72,4.08,0.7,6.08c-0.06,5.41-1.71,9.56-6.21,13.63c-18.21,16.48-19.59,46.36-3.61,65.75
			c1.92,2.33,2.58,4.5,2.66,7.48c0.23,8.9-0.13,17.77-0.23,26.66c-0.02,1.81-0.01,3.31-2.35,3.82c-8.93,1.95-12.61,8.33-13.77,16.73
			c-0.32,2.29-0.65,4.58-0.97,6.83c-1.8-1.65-3.59-3.29-5.38-4.93c-1.34-5.39-5.17-8.62-9.74-11.22c-6.1-3.47-12.55-6.12-19.29-8.08
			c-1.44-0.42-3.2-0.25-3.82-2.14c6.28-4.61,12.66-9.09,18.81-13.87c5.84-4.54,10.79-10.01,13.86-16.81
			c5.3-11.73,2.1-22.74-4.32-32.77c-9.92-15.48-25.15-24.74-40.97-33.13c-1.59-0.84-3.52-1.14-4.98-3c2.15-0.86,4.06-1.75,6.05-2.42
			c17.55-5.89,33.62-14.66,49.04-24.79c9.54-6.27,12.15-12.76,4.81-22.9c-7.59-10.47-15.39-20.79-23.07-31.2
			c-11.02-14.95-20.19-31.03-28.58-47.56c2.09-1.9,3.47,0.35,4.84,1.09c9.48,5.08,19.21,9.46,29.57,12.5
			c6.16,1.81,12.71,1.69,18.72,3.6c13.3,4.23,26.19,3.07,39.06-1.34c2.11-0.73,4.37-1.86,1.71-4.58
			c-3.93-12.96-6.66-26.13-7.87-39.67c-1.46-16.25,0.4-32.34,1.51-48.47c0.59-8.69,1.64-17.35,2.48-26.02
			c3.77,3.95,6.64,8.59,9.62,13.12c12.84,19.55,26.56,38.36,44.98,53.19c9.93,8,20.31,15.36,31.47,21.56
			c3.74,2.08,6.55,0.67,8.68-2.62c9.57-14.77,21.18-27.95,32.4-41.42l0.2,0.2c-0.07,2.83-1.76,4.94-3.18,7.16
			c-4.63,7.24-8.73,14.76-11.91,22.75c-0.75,1.87-1.28,3.83-1.75,5.79c-0.18,0.74,0.12,1.7,1.04,1.8c0.41,0.04,1.24-0.6,1.3-1.02
			c0.5-3.45,3.85-4.75,5.41-7.37c5.52-9.23,10.88-18.55,16.55-27.68c4.66-7.52,9.37-15.05,15.53-21.5c0.16,0.16,0.32,0.32,0.48,0.47
			c-6.96,13.05-13.02,26.5-18.09,40.4c-0.8,2.19-1.42,4.44-2.07,6.68c-0.29,1.01-0.9,2.33,0.38,2.91c1.72,0.77,1.95-0.99,2.52-1.98
			c0.39-0.67,0.62-1.42,0.93-2.14c5.64-13.32,11.16-26.71,18.43-39.24c3.26-5.61,5.76-11.73,10.42-16.47c0.2,0.16,0.4,0.32,0.6,0.49
			c-1.15,2.72-2.23,5.48-3.46,8.17c-6.65,14.46-12.8,29.11-16.76,44.57c-0.6,2.35-1.48,4.76-0.43,8.41c1.36-3.51,2.39-5.93,3.24-8.4
			c8.75-25.4,19.91-49.77,31.49-73.96c1.78-3.73,4.34-6.91,7.83-9.5c-0.72,6.3-1.2,12.66-3.49,18.29
			c-9.58,23.5-15.97,47.86-20.93,72.65c-0.66,3.31-1.42,6.71-0.67,10.14c0.2,0.91,0.7,1.97,1.76,1.91c1.27-0.08,1.02-1.3,1.12-2.19
			c0.19-1.7,0.32-3.41,0.62-5.09c2.49-14.14,6.81-27.84,10.31-41.73c1.26-5,2.89-9.91,4.36-14.87c0.67,1.56,0.78,2.96,0.65,4.34
			c-1.75,18.19-2.02,36.38,0.12,54.55c1.04,8.84,2.53,17.6,6.6,25.66c1.51,3,3.46,6.11,6.86,6.58c9.04,1.26,17.82,4.52,27.21,3.27
			c11.73-1.57,23.51-2.74,35.24-4.27c11.07-1.45,22.12-3.13,33.6-4.77c-0.67,2.46-1.55,4.2-3.48,5.2c-2.33,1.21-3.83,3.22-5.04,5.4
			c-3.04,5.44-6.06,10.89-8.88,16.44c-11.95,23.55-22.78,47.54-27.96,73.65c-0.72,3.64-1.51,7.34-1.2,11.1
			c0.09,1.03,0.33,2.29,1.61,2.6c1.08,0.27,1.58-0.81,2.29-1.35c2.73-2.07,3.12-5.35,3.97-8.28c0.84-2.92,2.21-4.25,5.26-3.3
			c17.91,20.15,40.31,33.71,64.81,44.21c1.42,0.61,2.8,1.29,4.2,1.94c-3.28,1.93-6.8,1.3-10.3,0.96c-0.94-1.06-1.88-1.16-2.81,0.01
			c-3.37,0.2-6.26-0.81-9.21-2.58c-16.04-9.62-32.17-19.08-47.18-30.3c-1.44-1.08-3.5-3.69-5.01-1.74c-1.4,1.81,1.55,3.34,2.92,4.63
			c7.15,6.78,15.01,12.64,23.48,17.67c2.74,1.63,5.49,3.26,8.24,4.89c-9.76,0.68-18.49-3.73-28.02-5.04
			c0.28,2.4,1.63,2.39,2.53,2.76c8.26,3.43,16.8,5.7,25.79,6.03c9.71,0.36,13.4,1.35,16.7,4.36c-15.29,2.37-30.53,1.27-46.87-1.48
			c3.98,5.34,8.64,5.35,13.21,5.63c4.65,0.29,9.3,0.64,13.95,0.96c0.01,0.2,0.02,0.4,0.02,0.59c-8.79,1.71-17.57,3.41-26.36,5.12
			c0.09,0.49,0.17,0.99,0.26,1.48c13.73,3.55,26.61-2.49,40.03-4.09c-4.11,3.08-8.6,5.41-12.86,8.04
			c-9.4,5.81-19.2,10.97-28.82,16.43c-3.12,1.77-6.22,3.58-8.85,6.06c-1.07,1.01-1.8,2.2-1.22,3.74c0.54,1.42,1.82,1.49,3.08,1.66
			c3.36,0.46,6.6,0.01,9.49-1.72c2.44-1.46,3.25-0.18,3.93,1.79c-0.01,0.95-0.01,1.91-0.02,2.86
			C1048.51,600.96,1049.01,601.54,1050.23,601.83z M838.05,383.53c0.13,0.06,0.26,0.13,0.39,0.19c-0.12-0.07-0.24-0.14-0.37-0.21
			c-0.26-0.36-0.52-0.73-0.77-1.09c-9.96-11.6-17.72-24.72-25.5-37.84c1.9,7.93,5.83,14.74,10.18,21.33
			c4.18,6.34,8.1,12.9,14.92,16.91C837.28,383.06,837.67,383.29,838.05,383.53z M1050.54,436.82c-1.16-0.03-1.75,0.69-2.15,1.65
			c-8.54,6.29-14.8,14.59-20.57,23.34c8.26-6.5,14.75-14.63,21.06-22.92c0.58-0.66,1.16-1.33,1.74-1.99
			c0.11-0.16,0.23-0.32,0.34-0.48C1050.83,436.56,1050.69,436.69,1050.54,436.82z M1041.15,428.35c-10.26,4-19.95,8.98-28.26,16.3
			c10.1-4.3,20.16-8.66,28.52-16c0.36-0.19,0.72-0.38,1.08-0.57c-0.09-0.1-0.23-0.31-0.27-0.3
			C1041.85,427.95,1041.5,428.15,1041.15,428.35z M993.59,434.03c0.34,0.83,0.68,1.67,1.01,2.5c24.17-11.98,50.09-19.18,75.35-28.16
			C1041.57,408.72,1017.35,420.72,993.59,434.03z M1087.67,640.48c-16.57-7.2-32.32-15.6-46.01-27.48
			c-0.96-0.84-2.24-1.64-3.35-0.62c-1.52,1.4,0.01,2.54,0.81,3.56C1051.46,631.71,1068.52,638.22,1087.67,640.48z M789.76,322.16
			c-0.61,6.18,0.01,12.29,0.38,18.45c1.08,17.69,4.48,34.88,10.45,51.55c1.21,3.38,2.76,6.63,4.83,9.58
			c0.68,0.97,1.57,2.59,2.84,1.89c1.58-0.87,0.13-2.18-0.43-3.15c-3.48-6-5.54-12.54-7.28-19.18
			C795.44,361.88,792.54,342.04,789.76,322.16z M769.62,434.62c-11.6-6.49-23.13-10.83-34.11-16.28
			c-6.38-3.17-12.49-6.91-18.75-10.33c-0.89-0.48-2.12-1.32-2.94-0.14c-0.81,1.17,0.33,2.04,1.16,2.68c3.06,2.36,6.03,4.89,9.3,6.93
			c11.45,7.13,23.94,11.92,36.84,15.69C763.6,433.9,765.96,435.4,769.62,434.62z M714.49,414.97c1.55,8.29,34.02,31.69,44.77,32.26
			C743.99,436.22,729.51,425.79,714.49,414.97z M764.69,466.15c-4.37-5.45-9.74-9.83-15.25-14.05c-5.69-4.35-11.42-8.64-16.62-13.57
			c-1.26-1.2-2.2-4.09-4.09-2.82c-2.25,1.51,0.26,3.54,0.96,5.27c0.28,0.69,0.86,1.3,1.39,1.86
			C740.62,452.9,752.4,459.8,764.69,466.15z M799.55,329.43c-1.22,16.09,14.43,58.62,22.91,61.94
			C811.46,371.62,804.72,350.86,799.55,329.43z M744.29,527.99c-0.06-0.45-0.11-0.9-0.17-1.35c-10.27,0-20.55,0.01-30.82-0.01
			c-1.73,0-4.23-1.41-4.68,1.24c-0.37,2.19,2.14,2.93,3.9,3.26C723.44,533.19,733.96,531.41,744.29,527.99z M1085.91,645.51
			c-14.1-5.03-27.52-6.94-41-8.6C1057.5,643.26,1070.78,646.26,1085.91,645.51z M1041.06,648.87c14.1,2.32,28.02,0.6,41.9-1.89
			C1068.98,647.11,1054.92,645.3,1041.06,648.87z M725.45,622.1c-1,0.17-2.54,0.32-4.01,0.72c-0.73,0.2-1.32,0.99-1.07,1.82
			c0.15,0.48,0.8,1.1,1.26,1.14c6.39,0.5,12.28,3.31,18.62,3.94c0.95,0.09,2.44,0.65,2.73-0.85c0.25-1.24-1.1-1.71-1.98-2.28
			C736.44,623.67,731.33,622.59,725.45,622.1z M748.24,615.47c-5.11-2.52-10.05-3.34-15.15-1.61c-1.64,0.55-2.97,1.42-2.43,3.31
			c0.51,1.79,2.23,1.5,3.56,1.24C738.91,617.51,743.57,616.46,748.24,615.47z M744.52,516.69c-5.91,0.87-11.81,1.75-17.72,2.62
			c-0.82,0.12-1.66,0.44-1.61,1.35c0.07,1.15,1.1,1.37,2.06,1.45C733.67,522.6,739.41,520.77,744.52,516.69z M1052.55,434.73
			l0.03-0.35l-0.39,0.16L1052.55,434.73z"/>
		<path class="st9" d="M938.9,318.62c-6.16,6.46-10.87,13.98-15.53,21.5c-5.67,9.13-11.03,18.45-16.55,27.68
			c-1.56,2.61-4.92,3.91-5.41,7.37c-0.06,0.42-0.89,1.07-1.3,1.02c-0.92-0.1-1.22-1.06-1.04-1.8c0.48-1.96,1.01-3.92,1.75-5.79
			c3.19-7.99,7.28-15.51,11.91-22.75c1.42-2.22,3.11-4.33,3.18-7.16c0.11-0.18,0.22-0.37,0.33-0.55c-0.18,0.12-0.35,0.23-0.53,0.35
			c-11.23,13.48-22.83,26.65-32.4,41.42c-2.13,3.28-4.94,4.69-8.68,2.62c-11.16-6.21-21.54-13.56-31.47-21.56
			c-18.42-14.83-32.13-33.64-44.98-53.19c-2.98-4.53-5.84-9.16-9.62-13.12c0.09-1.85,0.18-3.69,0.3-5.93
			c2.1,0.55,2.97,2.08,3.98,3.27c13.45,15.79,27.62,30.93,41.53,46.31c10.19,11.26,21.41,21.25,32.97,30.96
			c1.07,0.9,2.21,1.74,3.37,2.52c6.48,4.33,8.14,4.07,12.88-2.09c12.16-15.79,23.13-32.47,36.66-47.22
			c17-18.54,35.44-35.55,54.41-52.01c3.55-3.08,6.24-7.18,11.41-10.26c-1.16,8.93-2.12,16.74-3.21,24.54
			c-4.97,35.78-6.21,71.72-4.4,107.77c0.57,11.33,6.46,16.75,17.87,16.2c21.85-1.05,43.29-5.07,64.65-9.6
			c11.42-2.42,22.96-4.31,34.45-6.4c1.49-0.27,3.47-1.35,4.41-0.03c1.14,1.61-0.8,3.12-1.59,4.53
			c-13.85,24.74-28.85,48.84-41.78,74.09c-4.47,8.73-8.67,17.59-12.46,26.65c-1.04,2.48-1.43,4.74,0.31,7
			c-3.05-0.95-4.42,0.38-5.26,3.3c-0.84,2.93-1.23,6.21-3.97,8.28c-0.71,0.54-1.21,1.62-2.29,1.35c-1.27-0.32-1.52-1.57-1.61-2.6
			c-0.31-3.76,0.48-7.46,1.2-11.1c5.18-26.11,16-50.1,27.96-73.65c2.82-5.55,5.84-11,8.88-16.44c1.22-2.18,2.71-4.19,5.04-5.4
			c1.93-1,2.81-2.74,3.48-5.2c-11.48,1.64-22.53,3.33-33.6,4.77c-11.73,1.53-23.51,2.71-35.24,4.27
			c-9.38,1.25-18.17-2.01-27.21-3.27c-3.4-0.48-5.35-3.58-6.86-6.58c-4.07-8.07-5.56-16.83-6.6-25.66
			c-2.14-18.17-1.87-36.36-0.12-54.55c0.13-1.38,0.02-2.78-0.65-4.34c-1.46,4.95-3.1,9.86-4.36,14.87
			c-3.5,13.9-7.82,27.59-10.31,41.73c-0.3,1.68-0.43,3.39-0.62,5.09c-0.1,0.89,0.16,2.12-1.12,2.19c-1.07,0.06-1.56-1-1.76-1.91
			c-0.75-3.43,0.01-6.83,0.67-10.14c4.96-24.79,11.35-49.16,20.93-72.65c2.29-5.62,2.77-11.98,3.49-18.29
			c-3.49,2.58-6.04,5.77-7.83,9.5c-11.58,24.19-22.74,48.56-31.49,73.96c-0.85,2.47-1.88,4.89-3.24,8.4
			c-1.04-3.65-0.17-6.05,0.43-8.41c3.97-15.46,10.12-30.11,16.76-44.57c1.23-2.69,2.31-5.44,3.46-8.17c0.8-0.94,1.99-1.77,1.18-3.38
			c-1.37,0.72-1.39,1.9-1.77,2.89c-4.66,4.73-7.16,10.85-10.42,16.47c-7.27,12.54-12.79,25.93-18.43,39.24
			c-0.3,0.72-0.54,1.47-0.93,2.14c-0.57,0.99-0.8,2.75-2.52,1.98c-1.28-0.58-0.68-1.9-0.38-2.91c0.65-2.24,1.27-4.49,2.07-6.68
			c5.06-13.89,11.13-27.35,18.08-40.4c0.08-0.25,0.17-0.49,0.25-0.74C939.39,318.44,939.14,318.53,938.9,318.62z M941.05,316.09
			c0.21-0.21,0.41-0.43,0.62-0.64c-0.16-0.08-0.32-0.15-0.48-0.23c-0.04,0.3-0.08,0.6-0.11,0.89c-0.16,0.13-0.31,0.26-0.47,0.39
			c0.1-0.01,0.24,0.01,0.28-0.05C940.97,316.37,940.99,316.22,941.05,316.09z"/>
		<path class="st10" d="M892.36,408.92c6.13-2.55,12.31-0.56,18.34,0.2c16.76,2.1,32.06,8.81,46.72,16.7
			c16.68,8.99,27.8,23.72,37.91,39.24c1.96,3,3.81,6.08,5.92,8.96c8.97,12.23,10.72,27,14.51,41.03c5.62,20.78,7.6,42.06,6.41,63.41
			c-0.93,16.66,0.61,33.36-1.52,49.95c-0.26,2-0.6,4-0.85,6c-0.25,1.93,0.04,3.39,1.91,4.78c9.24,6.9,14.17,16.22,14.76,27.77
			c0.02,0.31,0,0.62,0,0.94c-0.02,6.94-0.18,6.55,5.91,3.98c19.94-8.42,39.83-17.02,61-22.06c1.49-0.36,3.08-0.31,4.63-0.46
			c0.3,0.04,0.67-0.01,0.9,0.15c1.51,1.01,4.05,1.6,4.01,3.46c-0.04,1.94-2.59,2.45-4.25,3.12c-14,5.67-28.33,10.37-42.72,14.92
			c-6.64,2.1-13.49,3.81-19.08,8.34c-0.36-0.28-0.69-0.35-0.92,0.16c0,0,0.13-0.08,0.13-0.08c-4.67,0.71-9.06,1.43-9.91,7.55
			c-0.4,2.86-2.56,5.3-4.77,7.29c-7.61,6.84-15.68,13.14-24.79,17.78c-4.09,2.08-5.87,4.65-5.58,8.99
			c-1.47,1.78-1.95,3.88-1.98,6.12c-2.18,4.66-2.14,9.86-3.56,14.7c-1.29,4.39-0.09,6.53,4.75,6.32c2.6-0.11,5.21,0.26,7.82,0.42
			c0.49,0.96,0.97,1.94,1.49,2.89c1.35,2.5,0.91,3.77-2.22,3.54c-8.7-0.64-17.41-1.2-26.12-1.81c-3.27-0.23-3.95-1.75-2.47-4.65
			c1.92-3.74,3.42-7.71,5.49-11.36c5.8-10.23,10.2-21.03,13.39-32.3c0.9-3.19,2.49-4.62,5.61-5.22c6.19-1.2,11.93-3.64,17.07-7.3
			c16.02-11.42,15.16-36.34-1.56-46.77c-3.01-1.88-5.95-3.88-9.02-5.66c-1.66-0.96-1.81-2.15-1.62-3.89
			c3.44-32.64,3.27-65.34,2.43-98.11c-0.86-33.35-12.54-61.79-35.17-86.2c-14.82-15.98-31.95-27.96-52.42-35.62
			c-9.15-3.43-18.44-5.21-27.96-6.5C894.09,409.55,893.23,409.18,892.36,408.92z"/>
		<path class="st11" d="M790.3,601.04c-19.92-2.51-34.92-18.74-35.57-38.37c-0.09-2.63,0.14-4.26,3.38-3.38
			c1.02,0.27,2.2,0.21,3.26,0.03c3.83-0.67,6.27-0.02,6.98,4.62c0.34,2.22,1.65,5.19,5.2,4.94c3.87-0.28,5.48-3.44,5.88-6.23
			c0.61-4.22,2.87-4.58,6.23-4.7c18.08-0.65,36.12,0.88,54.19,0.81c-0.01,2,0.32,3.97-0.25,6c-3.37,11.99-10.49,21.21-20.2,28.83
			c-7.25,5.69-15.52,5.49-23.91,5.39C793.48,598.96,791.32,598.59,790.3,601.04z"/>
		<path class="st7" d="M832.58,518.33c-0.04,0.3-0.13,0.59-0.28,0.85c-4.34,1.72-3.83,5.04-2.13,8.06c4.6,8.18,5.73,17.3,7.69,26.21
			c-2.49,0.08-4.98,0.3-7.46,0.21c-22.59-0.82-45.16-0.89-67.74,0.57c-8.11,0.52-8.28-0.02-5.84-7.79
			c4.26-13.57,13.52-22.38,26.18-28.12c2.03-0.92,4.69-1,5.69-3.61C803.33,515.74,817.89,517.85,832.58,518.33z"/>
		<path class="st12" d="M1004.67,614.77c-2.09-8.8-2.55-17.82-3.54-26.76c-2.15-19.49-3.97-39.03-6.77-58.44
			c-2.58-17.88-6.93-35.11-17.12-50.5c-9.15-13.81-20.5-25.37-33.19-35.89c-16.59-13.77-35.39-22.49-56.51-26.46
			c-6.82-1.28-13.7,0.17-20.53-0.51c0.62-1.34,1.81-1.47,3.11-1.62c8.56-0.96,17.19-1.52,25.66,0.03
			c23.1,4.21,44.89,11.6,62.89,27.55c27.62,24.48,45.36,53.93,46.85,91.78c0.99,25.11,1.1,50.21-0.03,75.32
			C1005.42,611.12,1005.57,613.03,1004.67,614.77z"/>
		<path class="st13" d="M773.4,498.62c5.87-3.08,12.12-4.92,18.57-6.48c21.19-5.14,42.62-3.72,63.99-2.53
			c25.93,1.44,51.84,3.41,77.74,5.39c6.43,0.49,13.04,0.9,18.75,4.59c-11.2,2.52-22.52,4.62-34.01,4.48
			c-20.04-0.26-40.01,1.69-60.13,0.66c-21.73-1.11-43.5-1.79-65.2-3.44C786.53,500.77,779.81,500.66,773.4,498.62z"/>
		<path class="st14" d="M1103.04,552.05c3.49,0.34,7.01,0.97,10.3-0.96c3.36,1.17,6.73,2.32,10.09,3.5c2.25,0.79,2.29,1.88,0.3,3.06
			c-1.47,0.87-2.98,1.68-4.49,2.47c-18.03,9.4-36.53,17.76-55.49,25.12c-5.99,2.33-11.73,5.12-14.29,11.71
			c-0.68-1.97-1.5-3.25-3.93-1.79c-2.89,1.73-6.13,2.18-9.49,1.72c-1.26-0.17-2.54-0.25-3.08-1.66c-0.59-1.55,0.15-2.74,1.22-3.74
			c2.63-2.48,5.73-4.29,8.85-6.06c9.62-5.46,19.42-10.62,28.82-16.43c4.26-2.63,8.76-4.97,12.86-8.04
			c-13.42,1.6-26.3,7.65-40.03,4.09c-0.09-0.49-0.17-0.99-0.26-1.48c8.79-1.71,17.57-3.41,26.36-5.12c-0.01-0.2-0.02-0.4-0.02-0.59
			c-4.65-0.32-9.29-0.68-13.95-0.96c-4.57-0.28-9.23-0.29-13.21-5.63c16.34,2.76,31.58,3.85,46.87,1.48c-3.31-3.01-7-4-16.7-4.36
			c-8.99-0.33-17.53-2.6-25.79-6.03c-0.9-0.37-2.25-0.36-2.53-2.76c9.53,1.3,18.26,5.72,28.02,5.04c-2.75-1.63-5.49-3.26-8.24-4.89
			c-8.47-5.03-16.33-10.89-23.48-17.67c-1.36-1.29-4.32-2.83-2.92-4.63c1.51-1.95,3.57,0.67,5.01,1.74
			c15.01,11.23,31.14,20.68,47.18,30.3c2.95,1.77,5.84,2.78,9.21,2.58l-0.05-0.04c0.96,0.93,1.93,1.17,2.89,0L1103.04,552.05z
			 M1087.37,560.12c-0.02-0.1-0.02-0.25-0.08-0.29c-0.1-0.06-0.24-0.05-0.37-0.07c0.03,0.16,0.07,0.32,0.1,0.48
			C1087.14,560.2,1087.26,560.16,1087.37,560.12z M1076.13,545.97c-0.24-0.02-0.47-0.04-0.71-0.06c0.11,0.08,0.22,0.21,0.34,0.22
			C1075.88,546.15,1076.01,546.04,1076.13,545.97z"/>
		<path class="st12" d="M848.57,820.85c-0.26-4.03-2.18-9.21-0.37-11.79c2.24-3.2,7.27,0.25,11.1,0.55
			c19.3,1.49,37.78-1.67,55.61-9.07c1.69-0.7,3.26-1.82,4.5-1.81c0,9.97,0.04,19.86-0.04,29.75c-0.01,1.86-1.54,2.91-2.93,3.97
			c-4.1,3.13-8.43,5.79-13.52,7.02c-9.22-0.24-18.16-2.03-26.59-5.7C866.98,829.71,857.82,825.18,848.57,820.85z"/>
		<path class="st13" d="M1001.01,721.06c-0.29-4.34,1.49-6.9,5.58-8.99c9.11-4.64,17.19-10.94,24.79-17.78
			c2.21-1.99,4.37-4.43,4.77-7.29c0.85-6.12,5.24-6.85,9.91-7.55c-2.27,6.38-0.03,12.03,2.82,17.6c3.38,6.59,6.75,13.19,10.13,19.78
			c-11.91-0.78-23.82-1.53-35.72-2.38c-4.19-0.3-8.34-0.55-12.5,0.39c-2.59,0.59-4.25,1.81-4.28,4.65
			C1004.68,720.01,1002.84,720.54,1001.01,721.06z M1035.72,701.09c-0.25,0.37-0.5,0.75-0.75,1.12c3.43,5.15,9.08,5.92,14.88,6.42
			C1045.15,706.12,1040.43,703.61,1035.72,701.09z"/>
		<path class="st10" d="M773.4,498.62c6.41,2.04,13.13,2.16,19.71,2.66c21.7,1.65,43.47,2.33,65.2,3.44
			c20.12,1.03,40.08-0.92,60.13-0.66c11.49,0.15,22.81-1.95,34.01-4.48c4.05,2.97,4.09,5.79-0.05,8.02c-4,2.15-8.46,2.25-12.79,1.9
			c-37.37-3.03-74.82-0.63-112.21-1.82c-15.09-0.48-30.23-0.52-45.16-3.39c-2.76-0.53-5.53-0.97-8.06-2.24
			C772.64,501.27,771.42,500.27,773.4,498.62z"/>
		<path class="st12" d="M832.58,518.33c-14.69-0.49-29.25-2.59-43.9-3.61c0.02-2.8-1.49-3.39-3.83-2.56c-1.98,0.7-3.9,1.53-5.85,2.3
			c-0.36-1.83-1.32-2.86-3.32-2.53c-0.13-2.04-0.13-3.82,2.86-3.35c38.05,6.09,76.39,3.78,114.65,4
			c11.36,0.07,22.74-0.24,34.03,1.56c-4.54,2.57-9.66,1.8-14.46,2.06c-14.45,0.76-28.96,0.59-43.42,1.28
			c-9.49,0.45-18.96,0.99-28.46,0.86c-1.08-0.02-2.22-0.08-2.92,1.02C836.35,518.03,834.77,516.61,832.58,518.33z"/>
		<path class="st7" d="M848.57,820.85c9.24,4.33,18.4,8.85,27.76,12.93c8.43,3.67,17.37,5.47,26.59,5.7
			c-13.21,5.54-26.76,8.74-41.24,6.66c-6.05-0.87-8.93-5.92-13.25-9.06c-0.4-0.29-0.25-1.46-0.24-2.21
			C848.3,830.2,848.45,825.53,848.57,820.85z"/>
		<path class="st5" d="M790.3,601.04c1.03-2.45,3.19-2.08,5.18-2.06c8.39,0.1,16.66,0.3,23.91-5.39
			c9.71-7.62,16.83-16.84,20.2-28.83c0.57-2.04,0.25-4,0.25-6c8.22-0.76,8.11-0.76,7.66,7.45c-0.38,6.97-2.56,13.37-5.31,19.69
			c-3.77,8.69-10.84,12.92-19.57,14.96C811.87,603.37,801.08,603.56,790.3,601.04z"/>
		<path class="st10" d="M792.45,408.82c2.66,2.72,0.41,3.85-1.71,4.58c-12.86,4.41-25.76,5.57-39.06,1.34
			c-6.01-1.91-12.56-1.79-18.72-3.6c-10.35-3.04-20.09-7.42-29.57-12.5c-1.37-0.74-2.75-2.99-4.84-1.09
			c-2.32-3.06-0.61-3.11,1.88-2.47c7.39,1.91,14.77,3.88,22.17,5.78c15.09,3.87,30.06,8.24,45.55,10.38
			C776.48,412.39,784.63,412.44,792.45,408.82z"/>
		<path class="st12" d="M1000.3,695.1c3.95-15.74,5.13-31.09,6.56-46.41c0.16-1.67,0.04-3.59,2.94-2.32
			c9.34,4.11,15.65,10.4,16.88,21.08c0.95,8.32-1.53,15.06-8.16,20.13C1013.39,691.51,1007.57,693.98,1000.3,695.1z M1010.4,649.43
			c-1.63,12.44-3.19,24.13-4.69,35.84c-0.29,2.3,0.82,2.85,2.76,1.72c7.17-4.2,12.59-9.69,13.12-18.54
			c0.14-2.41,1.99-5.06,0.06-7.21C1018.24,657.44,1015.47,653.03,1010.4,649.43z"/>
		<path class="st13" d="M737.59,698.07c2.61-4.57,5.32-9.08,7.79-13.73c2.55-4.82,3.84-10.08,4.41-16.5
			c4.4,6.94,9.94,10.99,15.55,15.15c3.21,2.38,2.6,6.73,1.64,10.48C757.19,695.01,747.39,696.54,737.59,698.07z"/>
		<path class="st7" d="M765.77,676.83c-14.31-8.49-15.81-23.09-12.93-34.36c0.55-2.15,1.74-3.97,3.2-5.6
			c1.74-1.93,4.17-3.7,6.43-2.98c1.82,0.57,0.76,3.56,0.87,5.46c0.61,10.7,0.98,21.41,2.4,32.05
			C765.95,673.01,765.77,674.69,765.77,676.83z"/>
		<path class="st10" d="M1006.51,719.48c0.03-2.84,1.69-4.06,4.28-4.65c4.16-0.95,8.31-0.69,12.5-0.39
			c11.9,0.85,23.81,1.59,35.72,2.38c1.07,2.18,3.41,4.95,2.26,6.62c-1.44,2.08-4.86,0.65-7.41,0.51
			C1038.03,723.09,1022.43,719.63,1006.51,719.48z"/>
		<path class="st12" d="M837.86,553.46c-1.96-8.91-3.09-18.03-7.69-26.21c-1.7-3.02-2.21-6.34,2.13-8.06
			c0.81,3.73,3.94,5.84,6.18,8.5c5.22,6.21,8.95,12.86,9.45,21.22c0.19,3.13-0.1,4.78-3.58,4.62
			C842.19,553.42,840.02,553.48,837.86,553.46z"/>
		<path class="st10" d="M707.91,626c0.61,1.89,2.38,1.72,3.82,2.14c6.74,1.96,13.19,4.6,19.29,8.08c4.57,2.6,8.4,5.83,9.74,11.22
			c-12.56-8.4-27.25-10.95-42.02-14.89C701.71,629.59,704.85,627.85,707.91,626z"/>
		<path class="st12" d="M867.37,622.11c3.74,0.22,4.37,2.99,3.77,5.64c-3.25,14.43-9.58,27.2-21.37,36.63
			c-2.74,2.19-5.96,4.09-9.81,2.15c10.39-5.99,17.02-15.06,21.2-26.08C863.46,634.42,867.21,628.87,867.37,622.11z"/>
		<path class="st13" d="M754.49,727.11c3.55-5.36,5.71-11.19,6.15-17.63c1.14,0.27,2.28,0.54,3.42,0.81
			c1.79,2.3,3.38,4.82,5.43,6.87c4.46,4.46,3.13,10.21,3.85,15.51C767.16,730.46,761.27,727.28,754.49,727.11z"/>
		<path class="st10" d="M764.06,710.29c-1.14-0.27-2.28-0.54-3.42-0.81c-0.54-4.66-3.27-6.64-7.84-6.87
			c-6.37-0.32-12.64,1.12-19.43,1.07c0.98-2.53,2.28-4.3,4.21-5.61c9.8-1.53,19.59-3.06,29.39-4.59
			C762.89,698.54,761.86,704.14,764.06,710.29z"/>
		<path class="st12" d="M830.6,603.58c-0.66,2.91-3.23,3.07-5.41,3.63c-19.23,5-38.04,3.45-56.48-3.68
			c-0.66-1.66-0.55-3.29,0.11-5.05C788.74,609,809.35,610.28,830.6,603.58z"/>
		<path class="st10" d="M754.49,727.11c6.78,0.17,12.67,3.35,18.85,5.56c1.3,3.52,0.53,5.2-3.64,4.66
			c-5.85-0.76-11.73-1.29-17.61-1.78c-2.73-0.23-3.41-1.11-1.6-3.36C751.84,730.51,753.16,728.8,754.49,727.11z"/>
		<path class="st13" d="M1008.05,748.63c-2.61-0.15-5.22-0.53-7.82-0.42c-4.85,0.21-6.04-1.93-4.75-6.32
			c1.42-4.84,1.37-10.04,3.56-14.7C1000.99,734.77,1005.26,741.39,1008.05,748.63z"/>
		<path class="st7" d="M775.69,511.93c2-0.33,2.96,0.7,3.32,2.53c-1.07,0.55-2.13,1.1-3.24,1.68
			C775.06,514.59,775.5,513.26,775.69,511.93z"/>
		<path class="st14" d="M1050.23,601.83c-1.22-0.29-1.72-0.86-0.8-2.01C1050.18,600.29,1050.51,600.94,1050.23,601.83z"/>
		<path class="st12" d="M937.35,514.54c-0.97,0-1.93,0-2.9-0.01C935.42,514.03,936.39,514.05,937.35,514.54z"/>
		<path class="st12" d="M930.01,514.37c-0.41-0.04-0.81-0.07-1.22-0.11C929.23,513.88,929.63,513.93,930.01,514.37z"/>
		<path class="st13" d="M1045.93,679.52c0.23-0.51,0.56-0.43,0.92-0.16C1046.61,679.81,1046.3,679.84,1045.93,679.52z"/>
		<path class="st6" d="M810,1001.43c0.11,1.45,0.08,2.94-1.57,3.49c-1.59,0.53-2.65-0.53-3.47-1.73
			c-9.06-13.34-18.08-26.7-24.32-41.69c-1.68-4.04-2.49-8.27-2.86-12.6c0.23-3.68,1.81-6.87,3.52-10.05
			c6.35-11.79,13.02-23.41,20.84-34.3c11.58-16.12,20-34.01,29.36-51.37c0.93-1.72,1.45-3.83,3.85-2.62
			c2.52,1.27,1.47,3.55,0.55,5.3c-10.33,19.69-20.9,39.25-33.63,57.55c-6.32,9.09-11.49,18.86-16.66,28.63
			c-2.37,4.48-2.73,9.18-1.23,14.02c4.21,13.59,12.54,24.96,19.81,36.9C805.98,995.87,808.06,998.6,810,1001.43z"/>
		<path class="st6" d="M765.08,928.38c-4.12,28.69-5.97,57.66-10.62,86.28c-0.44,2.68,1.68,7.68-4.34,7.38
			c-2.35-4.91-0.54-9.89,0.31-14.62c4.53-24.95,6.21-50.23,9.05-75.38C760.04,927.04,760.75,926.51,765.08,928.38z"/>
		<path class="st6" d="M948.7,524.13c1.51-0.52,2.79-0.15,3.75,1.1c5.68,7.35,12.43,13.85,15.87,22.9
			c3.18,8.36,2.79,16.86,2.36,25.36c-1.41,28.27-21.97,41.49-42.84,44.97c-12.42,2.07-24.76,2.94-36.88-1.71
			c-5.91-2.27-11.46-5.24-15.59-10.02c-13.25-15.34-19.74-32.99-16.8-53.43c0.91-6.31,4.45-11.57,8.05-16.69
			c2.96-4.21,5.9-8.43,8.88-12.62c1.07-1.5,2.45-2.75,4.28-1.45c1.93,1.35,0.92,2.9-0.12,4.43c-4.41,6.42-8.88,12.81-13.07,19.37
			c-1.55,2.43-2.88,5.15-2.99,8.72c31.9-2.02,63.67-2.79,95.33,1.39c6.17,0.58,6.41,0.31,4.52-5.31c-0.45-1.32-1.04-2.59-1.57-3.88
			c-2.75-6.58-7.59-11.68-12.02-17.07C948.4,528.39,946.56,526.63,948.7,524.13z M957.86,561.47c-22.58-3.58-45.31-3.13-68.11-2.82
			c1.03,5.96-0.32,9.3-3.93,10.19c-4.29,1.06-10.08-1.65-10.16-5.64c-0.08-4.34-2.26-3.72-4.88-3.49c-1.4,0.12-2.83,0.35-4.2,0.18
			c-3.39-0.43-4.28,0.99-3.94,4.22c1.27,12.14,4.85,23.49,11.7,33.6c5.03,7.44,11.78,12.8,20.83,14.76
			c9.96,4.03,20.19,2.79,30.34,1.25c25.46-3.86,38.7-18.43,40.04-43.7C965.98,561.97,965.98,561.97,957.86,561.47z"/>
		<path class="st6" d="M816.47,699.18c35.38,1.74,70.59,4.64,104.98,13.77c1.8,0.48,3.57,1.09,5.29,1.79
			c2.06,0.84,2.09,2.51,1.37,4.27c-0.69,1.67-2.03,1.68-3.51,1.15c-37.22-13.25-76.15-14.3-114.97-16.13
			c-8.73-0.41-17.46-0.08-25.97,2.28c-0.74,0.21-1.54,0.26-2.31,0.32c-1.48,0.12-2.94-0.01-3.28-1.8c-0.36-1.96,0.83-2.72,2.59-3.13
			c9.32-2.18,18.78-2.81,28.32-2.54C811.48,699.24,813.98,699.18,816.47,699.18z"/>
		<path class="st6" d="M923.8,641.92c-5.54,0.12-10.81-0.16-15.91-1.85c-1.79-0.59-4-1.04-3.32-3.58c0.68-2.52,2.64-1.81,4.57-1.35
			c13.87,3.33,27.52,2.14,40.88-2.54c6.32-2.21,10.96-6.42,13.11-12.93c0.72-2.19,2.05-2.82,3.85-1.77c1.72,1.01,2.7,2.61,1.34,4.71
			c-4.58,7.08-10,13.14-18.52,15.52C941.22,640.54,932.57,642.43,923.8,641.92z"/>
		<path class="st6" d="M911.85,735.91c-1.73-0.06-3.21-0.6-3.12-2.62c0.07-1.64,1.4-2.34,2.88-2.57c5.83-0.91,11.67-1.71,17.49-2.68
			c2.59-0.43,5.28-0.83,7.65-1.87c5.8-2.55,7.53-8.36,3.96-13.46c-2.92-4.16-5.17-8.94-9.73-11.77c-1.31-0.81-2.18-1.9-1.29-3.46
			c0.99-1.74,2.54-1.63,4.03-0.78c2.18,1.25,3.98,2.97,5.48,5c1.75,2.37,3.54,4.71,5.32,7.06c6.57,11.67,1.78,21.7-11.5,23.91
			C925.97,733.83,918.9,734.83,911.85,735.91z"/>
		<path class="st12" d="M911.85,735.91c7.05-1.08,14.12-2.08,21.16-3.25c13.28-2.21,18.07-12.24,11.5-23.91
			c4.22-0.83,5.54,2.34,6.5,5.22c3.05,9.1,1.16,21.29-11.81,25c-7.68,2.2-15.83,2.59-23.89,1.08
			C912.88,739.59,911.81,738.28,911.85,735.91z"/>
		<path class="st12" d="M948.7,524.13c-2.15,2.5-0.31,4.26,1.16,6.05c4.43,5.39,9.27,10.49,12.02,17.07
			c0.54,1.29,1.13,2.56,1.57,3.88c1.9,5.61,1.65,5.88-4.52,5.31c-1.02-7.42-5.85-12.76-10.03-18.47c-1.46-1.99-3.05-3.9-4.3-6.02
			C941.6,526.82,942.6,525,948.7,524.13z"/>
		<path class="st15" d="M993.59,434.03c23.75-13.31,47.98-25.31,76.37-25.66c-25.27,8.98-51.18,16.18-75.35,28.16
			C994.27,435.69,993.93,434.86,993.59,434.03z"/>
		<path class="st15" d="M1087.67,640.48c-19.15-2.25-36.21-8.76-48.55-24.53c-0.8-1.02-2.33-2.17-0.81-3.56
			c1.11-1.02,2.39-0.22,3.35,0.62C1055.35,624.88,1071.1,633.28,1087.67,640.48z"/>
		<path class="st15" d="M789.76,322.16c2.78,19.88,5.68,39.72,10.78,59.15c1.74,6.64,3.8,13.18,7.28,19.18
			c0.56,0.97,2.01,2.28,0.43,3.15c-1.27,0.7-2.16-0.93-2.84-1.89c-2.07-2.95-3.62-6.2-4.83-9.58c-5.97-16.68-9.37-33.86-10.45-51.55
			C789.77,334.46,789.15,328.34,789.76,322.16z"/>
		<path class="st15" d="M769.62,434.62c-3.66,0.78-6.02-0.72-8.5-1.45c-12.89-3.77-25.39-8.56-36.84-15.69
			c-3.27-2.04-6.24-4.57-9.3-6.93c-0.83-0.64-1.97-1.51-1.16-2.68c0.82-1.19,2.05-0.35,2.94,0.14c6.26,3.42,12.37,7.15,18.75,10.33
			C746.49,423.79,758.02,428.13,769.62,434.62z"/>
		<path class="st15" d="M714.49,414.97c15.02,10.82,29.5,21.26,44.77,32.26C748.51,446.66,716.04,423.25,714.49,414.97z"/>
		<path class="st15" d="M764.69,466.15c-12.3-6.35-24.08-13.24-33.61-23.31c-0.53-0.56-1.11-1.16-1.39-1.86
			c-0.7-1.73-3.21-3.76-0.96-5.27c1.89-1.27,2.82,1.63,4.09,2.82c5.21,4.93,10.94,9.22,16.62,13.57
			C754.95,456.31,760.32,460.69,764.69,466.15z"/>
		<path class="st15" d="M799.55,329.43c5.17,21.43,11.91,42.19,22.91,61.94C813.98,388.05,798.33,345.52,799.55,329.43z"/>
		<path class="st15" d="M744.29,527.99c-10.32,3.42-20.85,5.2-31.78,3.15c-1.76-0.33-4.27-1.07-3.9-3.26
			c0.45-2.65,2.95-1.25,4.68-1.24c10.27,0.02,20.55,0.01,30.82,0.01C744.17,527.09,744.23,527.54,744.29,527.99z"/>
		<path class="st15" d="M1085.91,645.51c-15.13,0.75-28.41-2.25-41-8.6C1058.39,638.57,1071.81,640.48,1085.91,645.51z"/>
		<path class="st15" d="M1041.06,648.87c13.86-3.57,27.92-1.76,41.9-1.89C1069.08,649.47,1055.16,651.19,1041.06,648.87z"/>
		<path class="st15" d="M836.9,382.83c-6.81-4.02-10.74-10.58-14.92-16.92c-4.35-6.59-8.28-13.41-10.18-21.33
			c7.78,13.12,15.54,26.24,25.5,37.84C837.16,382.55,837.03,382.69,836.9,382.83z"/>
		<path class="st15" d="M725.45,622.1c5.87,0.49,10.99,1.56,15.56,4.49c0.89,0.57,2.23,1.05,1.98,2.28c-0.3,1.5-1.79,0.94-2.73,0.85
			c-6.34-0.63-12.23-3.44-18.62-3.94c-0.46-0.04-1.11-0.66-1.26-1.14c-0.26-0.82,0.33-1.62,1.07-1.82
			C722.92,622.42,724.46,622.27,725.45,622.1z"/>
		<path class="st15" d="M1041.41,428.66c-8.36,7.33-18.42,11.69-28.52,15.99c8.32-7.32,18-12.3,28.26-16.3L1041.41,428.66z"/>
		<path class="st15" d="M1048.89,438.9c-6.32,8.29-12.81,16.41-21.07,22.92c5.76-8.76,12.02-17.06,20.57-23.34
			C1048.56,438.61,1048.73,438.75,1048.89,438.9z"/>
		<path class="st15" d="M748.24,615.47c-4.67,0.99-9.33,2.03-14.02,2.94c-1.33,0.26-3.05,0.55-3.56-1.24
			c-0.54-1.89,0.79-2.76,2.43-3.31C738.19,612.13,743.13,612.95,748.24,615.47z"/>
		<path class="st15" d="M744.52,516.69c-5.12,4.09-10.85,5.92-17.26,5.42c-0.96-0.07-1.99-0.3-2.06-1.45
			c-0.05-0.91,0.79-1.23,1.61-1.35C732.71,518.43,738.62,517.56,744.52,516.69z"/>
		<path class="st15" d="M1048.39,438.47c0.4-0.96,0.99-1.68,2.15-1.65l0.09,0.09c-0.58,0.66-1.16,1.33-1.74,1.99
			C1048.73,438.75,1048.56,438.61,1048.39,438.47z"/>
		<path class="st14" d="M1100.23,552.06c0.93-1.17,1.87-1.06,2.81-0.01c0,0,0.03-0.04,0.03-0.04c-0.96,0-1.93,0-2.89,0
			L1100.23,552.06z"/>
		<path class="st15" d="M1041.15,428.35c0.35-0.2,0.7-0.4,1.06-0.57c0.04-0.02,0.18,0.19,0.27,0.3c-0.36,0.19-0.72,0.38-1.07,0.58
			C1041.41,428.66,1041.15,428.35,1041.15,428.35z"/>
		<polygon class="st15" points="1052.55,434.73 1052.2,434.53 1052.59,434.38 		"/>
		<path class="st15" d="M838.05,383.53c-0.38-0.24-0.77-0.47-1.15-0.7c0.13-0.14,0.26-0.27,0.4-0.4c0.26,0.36,0.52,0.72,0.77,1.09
			L838.05,383.53z"/>
		<path class="st15" d="M838.07,383.51c0.12,0.07,0.24,0.14,0.37,0.21c-0.13-0.06-0.26-0.13-0.39-0.19
			C838.05,383.53,838.07,383.51,838.07,383.51z"/>
		<path class="st15" d="M1050.54,436.82c0.14-0.13,0.28-0.26,0.43-0.39c-0.11,0.16-0.23,0.32-0.34,0.48
			C1050.63,436.91,1050.54,436.82,1050.54,436.82z"/>
		<path class="st8" d="M951.91,309.24c0.38-0.99,0.4-2.17,1.77-2.89c0.82,1.62-0.38,2.44-1.18,3.38
			C952.31,309.57,952.11,309.4,951.91,309.24z"/>
		<path class="st8" d="M941.07,316.12c0.04-0.3,0.08-0.6,0.11-0.89c0.16,0.08,0.32,0.15,0.48,0.23c-0.21,0.21-0.41,0.43-0.62,0.64
			L941.07,316.12z"/>
		<path class="st8" d="M915.71,338.5c0.18-0.12,0.35-0.23,0.53-0.35c-0.11,0.18-0.22,0.36-0.33,0.55
			C915.91,338.7,915.71,338.5,915.71,338.5z"/>
		<path class="st8" d="M938.9,318.62c0.24-0.09,0.49-0.18,0.73-0.27c-0.08,0.25-0.17,0.49-0.25,0.74
			C939.22,318.94,939.06,318.78,938.9,318.62z"/>
		<path class="st8" d="M941.05,316.09c-0.05,0.13-0.08,0.27-0.16,0.37c-0.05,0.06-0.19,0.03-0.28,0.05
			c0.16-0.13,0.31-0.26,0.47-0.39C941.07,316.12,941.05,316.09,941.05,316.09z"/>
		<path class="st8" d="M1100.18,552.02c0.96,0,1.93,0,2.89,0C1102.11,553.18,1101.14,552.95,1100.18,552.02z"/>
		<path class="st8" d="M1087.37,560.12c-0.11,0.04-0.23,0.09-0.34,0.13c-0.03-0.16-0.07-0.32-0.1-0.48c0.12,0.02,0.27,0,0.37,0.07
			C1087.36,559.87,1087.35,560.02,1087.37,560.12z"/>
		<path class="st8" d="M1076.13,545.97c-0.12,0.06-0.25,0.18-0.37,0.17c-0.12-0.01-0.22-0.14-0.34-0.22
			C1075.66,545.94,1075.9,545.95,1076.13,545.97z"/>
		<path class="st15" d="M1035.72,701.09c4.71,2.51,9.42,5.03,14.13,7.54c-5.8-0.5-11.45-1.26-14.88-6.42
			C1035.23,701.84,1035.47,701.47,1035.72,701.09z"/>
		<path class="st7" d="M1010.4,649.43c5.07,3.6,7.84,8.01,11.24,11.8c1.93,2.16,0.09,4.81-0.06,7.21
			c-0.53,8.85-5.95,14.34-13.12,18.54c-1.94,1.14-3.05,0.58-2.76-1.72C1007.2,673.56,1008.76,661.86,1010.4,649.43z"/>
		<path class="st11" d="M895.18,612.47c-9.04-1.95-15.79-7.32-20.83-14.76c-6.85-10.12-10.43-21.46-11.7-33.6
			c-0.34-3.23,0.55-4.64,3.94-4.22c1.37,0.17,2.8-0.06,4.2-0.18c2.62-0.22,4.79-0.85,4.88,3.49c0.08,3.98,5.87,6.7,10.16,5.64
			c3.61-0.89,4.96-4.22,3.93-10.19c22.8-0.32,45.53-0.77,68.11,2.82c-0.07,0.92,0.01,1.89-0.23,2.76
			c-4.01,14.51-13.07,25.65-23.98,35.49c-4.53,4.09-9.19,8.5-15.45,9.16c-6.46,0.68-12.71,3.04-19.34,2.31
			C897.57,611.06,895.98,610.82,895.18,612.47z"/>
		<path class="st5" d="M895.18,612.47c0.8-1.65,2.4-1.41,3.69-1.27c6.63,0.72,12.88-1.64,19.34-2.31
			c6.26-0.66,10.91-5.06,15.45-9.16c10.92-9.85,19.97-20.98,23.98-35.49c0.24-0.87,0.16-1.84,0.23-2.76
			c8.11,0.49,8.11,0.49,7.69,8.54c-1.34,25.27-14.58,39.83-40.04,43.7C915.37,615.25,905.14,616.5,895.18,612.47z"/>
	</g>
</g>
</svg>
